<svg width="76" height="20" viewBox="0 0 76 20" fill="none" xmlns="http://www.w3.org/2000/svg">
  <path d="M7.91667 7.625L6.75 8.79167L14.4167 16.4583C14.75 16.7917 15.25 16.7917 15.5833 16.4583C15.9167 16.125 15.9167 15.625 15.5833 15.2917L7.91667 7.625Z" fill="#FF8800"/>
  <path d="M6.62504 11.0419L9.00004 8.66689L3.20837 2.91689L2.95837 3.12522C1.79171 4.29189 1.79171 6.20856 2.95837 7.37522L6.62504 11.0419Z" fill="#FF8800"/>
  <path d="M12.9584 9.04167L11.7917 7.875L4.33337 15.2917C4.00004 15.625 4.00004 16.125 4.33337 16.4583C4.66671 16.7917 5.16671 16.7917 5.50004 16.4583L12.9584 9.04167Z" fill="#FF7B00"/>
  <path d="M11.7603 4.33252C11.3734 4.71942 11.0512 5.16351 10.8122 5.63942C10.5731 6.11533 10.4219 6.61375 10.3672 7.10621C10.3125 7.59868 10.3553 8.07554 10.4932 8.50959C10.6311 8.94363 10.8613 9.32635 11.1709 9.63589C11.4804 9.94543 11.8631 10.1757 12.2972 10.3136C12.7312 10.4515 13.2081 10.4944 13.7005 10.4396C14.193 10.3849 14.6914 10.2338 15.1673 9.99474C15.6433 9.75573 16.0873 9.43357 16.4743 9.04665C16.8612 8.65974 17.1834 8.21566 17.4224 7.73975C17.6614 7.26384 17.8126 6.76542 17.8674 6.27296C17.9221 5.78049 17.8793 5.30362 17.7414 4.86958C17.6035 4.43554 17.3732 4.05282 17.0637 3.74328C16.7542 3.43374 16.3715 3.20344 15.9374 3.06553C15.5034 2.92762 15.0265 2.8848 14.534 2.93952C14.0416 2.99424 13.5432 3.14542 13.0672 3.38443C12.5913 3.62344 12.1472 3.9456 11.7603 4.33252Z" fill="#FF7B00"/>
  <path d="M26.486 10.848H28.334V13.914H26.486V10.848ZM27.396 5.038C28.0587 5.038 28.656 5.17333 29.188 5.444C29.72 5.71467 30.14 6.09267 30.448 6.578C30.756 7.054 30.91 7.6 30.91 8.216C30.91 8.832 30.756 9.38267 30.448 9.868C30.14 10.3533 29.72 10.7313 29.188 11.002C28.656 11.2727 28.0587 11.408 27.396 11.408C26.724 11.408 26.122 11.2727 25.59 11.002C25.058 10.7313 24.638 10.3533 24.33 9.868C24.022 9.38267 23.868 8.832 23.868 8.216C23.868 7.6 24.022 7.054 24.33 6.578C24.638 6.09267 25.058 5.71467 25.59 5.444C26.122 5.17333 26.724 5.038 27.396 5.038ZM27.396 6.62C27.06 6.62 26.7613 6.68533 26.5 6.816C26.248 6.93733 26.0473 7.11933 25.898 7.362C25.7487 7.59533 25.674 7.88 25.674 8.216C25.674 8.56133 25.7487 8.85533 25.898 9.098C26.0473 9.33133 26.248 9.51333 26.5 9.644C26.7613 9.76533 27.06 9.826 27.396 9.826C27.7227 9.826 28.012 9.76533 28.264 9.644C28.5253 9.51333 28.7307 9.33133 28.88 9.098C29.0293 8.85533 29.104 8.56133 29.104 8.216C29.104 7.88 29.0293 7.59533 28.88 7.362C28.7307 7.11933 28.5253 6.93733 28.264 6.816C28.012 6.68533 27.7227 6.62 27.396 6.62ZM31.946 4.268H33.808V17.232H31.946V4.268ZM33.234 9.35H35.516V10.89H33.234V9.35ZM23.658 14.656L23.434 13.158C24.1807 13.158 24.9973 13.1533 25.884 13.144C26.7707 13.1347 27.676 13.1067 28.6 13.06C29.524 13.0133 30.4153 12.934 31.274 12.822L31.414 14.166C30.518 14.334 29.608 14.4553 28.684 14.53C27.7693 14.5953 26.8827 14.6327 26.024 14.642C25.1747 14.6513 24.386 14.656 23.658 14.656ZM37.7969 5.024H45.9169V6.494H37.7969V5.024ZM36.4529 10.54H48.1849V12.052H36.4529V10.54ZM41.3109 11.604H43.1869V17.246H41.3109V11.604ZM44.9649 5.024H46.7989V6.172C46.7989 6.63867 46.7896 7.13333 46.7709 7.656C46.7616 8.17867 46.7242 8.75267 46.6589 9.378C46.5936 9.994 46.4722 10.6847 46.2949 11.45L44.4749 11.226C44.7176 10.1527 44.8576 9.21467 44.8949 8.412C44.9416 7.6 44.9649 6.85333 44.9649 6.172V5.024Z" fill="#F47B25"/>
  <path d="M53.486 10.848H55.334V13.914H53.486V10.848ZM54.396 5.038C55.0587 5.038 55.656 5.17333 56.188 5.444C56.72 5.71467 57.14 6.09267 57.448 6.578C57.756 7.054 57.91 7.6 57.91 8.216C57.91 8.832 57.756 9.38267 57.448 9.868C57.14 10.3533 56.72 10.7313 56.188 11.002C55.656 11.2727 55.0587 11.408 54.396 11.408C53.724 11.408 53.122 11.2727 52.59 11.002C52.058 10.7313 51.638 10.3533 51.33 9.868C51.022 9.38267 50.868 8.832 50.868 8.216C50.868 7.6 51.022 7.054 51.33 6.578C51.638 6.09267 52.058 5.71467 52.59 5.444C53.122 5.17333 53.724 5.038 54.396 5.038ZM54.396 6.62C54.06 6.62 53.7613 6.68533 53.5 6.816C53.248 6.93733 53.0473 7.11933 52.898 7.362C52.7487 7.59533 52.674 7.88 52.674 8.216C52.674 8.56133 52.7487 8.85533 52.898 9.098C53.0473 9.33133 53.248 9.51333 53.5 9.644C53.7613 9.76533 54.06 9.826 54.396 9.826C54.7227 9.826 55.012 9.76533 55.264 9.644C55.5253 9.51333 55.7307 9.33133 55.88 9.098C56.0293 8.85533 56.104 8.56133 56.104 8.216C56.104 7.88 56.0293 7.59533 55.88 7.362C55.7307 7.11933 55.5253 6.93733 55.264 6.816C55.012 6.68533 54.7227 6.62 54.396 6.62ZM58.946 4.268H60.808V17.232H58.946V4.268ZM60.234 9.35H62.516V10.89H60.234V9.35ZM50.658 14.656L50.434 13.158C51.1807 13.158 51.9973 13.1533 52.884 13.144C53.7707 13.1347 54.676 13.1067 55.6 13.06C56.524 13.0133 57.4153 12.934 58.274 12.822L58.414 14.166C57.518 14.334 56.608 14.4553 55.684 14.53C54.7693 14.5953 53.8827 14.6327 53.024 14.642C52.1747 14.6513 51.386 14.656 50.658 14.656ZM64.8249 4.996H72.9589V6.494H64.8249V4.996ZM63.4529 10.568H75.1849V12.066H63.4529V10.568ZM66.0709 11.632H67.9329V17.26H66.0709V11.632ZM71.8529 4.996H73.6869V5.822C73.6869 6.40067 73.6682 7.11 73.6309 7.95C73.5936 8.78067 73.4629 9.78867 73.2389 10.974L71.3909 10.862C71.6242 9.714 71.7596 8.72933 71.7969 7.908C71.8342 7.07733 71.8529 6.382 71.8529 5.822V4.996ZM70.5649 11.632H72.4269V17.26H70.5649V11.632Z" fill="black"/>
</svg>
